<!-- SF Symbols 3: xmark.octagon (SF Pro - Medium - Light) -->
<svg viewBox="0 0 99 96" xmlns="http://www.w3.org/2000/svg" xmlns:xlink="http://www.w3.org/1999/xlink">
    <g>
        <path fill="currentColor" stroke="none" d="M 35.237061 95.536987 L 63.011353 95.536987 C 65.358276 95.536987 67.296875 95.295044 68.827148 94.811279 C 70.357422 94.327515 71.682861 93.637329 72.803345 92.740967 C 73.92395 91.844604 75.062012 90.776123 76.217529 89.535767 L 93.640015 70.557251 C 95.164673 68.864746 96.187378 67.324829 96.708008 65.937622 C 97.22937 64.550537 97.48999 62.661377 97.48999 60.270142 L 97.48999 37.241089 C 97.48999 34.849976 97.22937 32.960815 96.708008 31.573608 C 96.187378 30.186401 95.164673 28.646484 93.640015 26.953979 L 76.217529 7.975464 C 75.062012 6.735107 73.92395 5.666626 72.803345 4.770264 C 71.682861 3.873901 70.357422 3.183716 68.827148 2.699951 C 67.296875 2.216187 65.358276 1.974243 63.011353 1.974243 L 35.237061 1.974243 C 32.891968 1.974243 30.954224 2.216187 29.42395 2.699951 C 27.893677 3.183716 26.573242 3.873901 25.462646 4.770264 C 24.352051 5.666626 23.218994 6.735107 22.063354 7.975464 L 4.608398 26.953979 C 3.085693 28.646484 2.068848 30.186401 1.557739 31.573608 C 1.046509 32.960815 0.790894 34.849976 0.790894 37.241089 L 0.790894 60.270142 C 0.790894 62.661377 1.046509 64.550537 1.557739 65.937622 C 2.068848 67.324829 3.085693 68.864746 4.608398 70.557251 L 22.063354 89.535767 C 23.218994 90.776123 24.352051 91.844604 25.462646 92.740967 C 26.573242 93.637329 27.893677 94.327515 29.42395 94.811279 C 30.954224 95.295044 32.891968 95.536987 35.237061 95.536987 Z M 36.957153 89.569336 C 35.068848 89.569336 33.563721 89.411011 32.441772 89.094238 C 31.319824 88.777466 30.336792 88.270264 29.492798 87.572632 C 28.648804 86.875 27.683472 85.951172 26.596924 84.80127 L 10.020996 66.802368 C 9.047729 65.702637 8.400391 64.692383 8.078857 63.771362 C 7.757446 62.850586 7.596802 61.478149 7.596802 59.654297 L 7.596802 37.857056 C 7.596802 36.033203 7.757446 34.660767 8.078857 33.739868 C 8.400391 32.81897 9.047729 31.808594 10.020996 30.70874 L 26.596924 12.709961 C 27.683472 11.560181 28.648804 10.636353 29.492798 9.938721 C 30.336792 9.241089 31.319824 8.733765 32.441772 8.416992 C 33.563721 8.10022 35.068848 7.941895 36.957153 7.941895 L 61.29126 7.941895 C 63.181274 7.941895 64.68689 8.10022 65.807861 8.416992 C 66.928955 8.733765 67.911499 9.241089 68.755493 9.938721 C 69.599487 10.636353 70.575684 11.560181 71.68396 12.709961 L 88.259888 30.70874 C 89.233276 31.808594 89.880615 32.81897 90.202026 33.739868 C 90.523315 34.660767 90.68396 36.033203 90.68396 37.857056 L 90.68396 59.654297 C 90.68396 61.478149 90.523315 62.850586 90.202026 63.771362 C 89.880615 64.692383 89.233276 65.702637 88.259888 66.802368 L 71.68396 84.80127 C 70.575684 85.951172 69.599487 86.875 68.755493 87.572632 C 67.911499 88.270264 66.928955 88.777466 65.807861 89.094238 C 64.68689 89.411011 63.181274 89.569336 61.29126 89.569336 Z M 32.098511 68.870605 C 32.989502 68.870605 33.751221 68.553467 34.383667 67.919189 L 49.141846 53.098755 L 63.929688 67.919189 C 64.585693 68.553467 65.337524 68.870605 66.185181 68.870605 C 67.032715 68.870605 67.758911 68.578247 68.363525 67.99353 C 68.968018 67.408813 69.270264 66.69165 69.270264 65.842163 C 69.270264 64.994507 68.953125 64.25354 68.318848 63.619263 L 53.501221 48.801758 L 68.35144 33.918945 C 68.985718 33.284668 69.302856 32.564453 69.302856 31.758301 C 69.302856 30.889038 69.00061 30.167358 68.395996 29.593506 C 67.791504 29.019653 67.06543 28.732666 66.217651 28.732666 C 65.413452 28.732666 64.68335 29.049805 64.027344 29.684204 L 49.141846 44.507446 L 34.318604 29.716675 C 33.707886 29.082397 32.967773 28.765259 32.098511 28.765259 C 31.270752 28.765259 30.554565 29.052246 29.949951 29.626099 C 29.345337 30.199951 29.043091 30.911743 29.043091 31.76123 C 29.043091 32.608765 29.360229 33.338867 29.994629 33.951538 L 44.812256 48.801758 L 29.994629 63.651855 C 29.360229 64.264404 29.043091 64.994507 29.043091 65.842163 C 29.043091 66.69165 29.345337 67.408813 29.949951 67.99353 C 30.554565 68.578247 31.270752 68.870605 32.098511 68.870605 Z"/>
    </g>
</svg>
