<!-- SF Symbols 3: checkmark (SF Pro - Medium - Light) -->
<svg viewBox="0 0 84 84" xmlns="http://www.w3.org/2000/svg" xmlns:xlink="http://www.w3.org/1999/xlink">
    <g>
        <path fill="currentColor" stroke="none" d="M 30.214355 83.58252 C 31.701416 83.58252 32.9021 82.9198 33.816406 81.594238 L 81.034668 7.793457 C 81.390015 7.239014 81.634644 6.74939 81.768555 6.324707 C 81.902466 5.899902 81.969482 5.484253 81.969482 5.077759 C 81.969482 4.075684 81.658936 3.259521 81.037842 2.62915 C 80.41687 1.998901 79.596069 1.683838 78.575439 1.683838 C 77.859741 1.683838 77.268677 1.823486 76.802246 2.102783 C 76.335815 2.382202 75.887939 2.868286 75.458496 3.561279 L 30.047852 75.083984 L 6.99585 46.283569 C 6.109009 45.101318 5.051636 44.510254 3.823608 44.510254 C 2.780029 44.510254 1.930298 44.832397 1.274658 45.476685 C 0.618774 46.120972 0.290894 46.955566 0.290894 47.980591 C 0.290894 48.424072 0.379883 48.86853 0.557739 49.313965 C 0.735474 49.759521 1.011353 50.215576 1.385254 50.682251 L 26.425415 81.524902 C 27.501221 82.896606 28.764282 83.58252 30.214355 83.58252 Z"/>
    </g>
</svg>
