<!-- SF Symbols 3: chevron.left (SF Pro - Medium - Heavy) -->
<svg viewBox="0 0 37 95" xmlns="http://www.w3.org/2000/svg" xmlns:xlink="http://www.w3.org/1999/xlink">
    <g>
        <path fill="currentColor" stroke="none" d="M 17.70874 88.810547 C 18.359863 90.307983 19.336426 91.553101 20.638428 92.545898 C 21.94043 93.538696 23.486816 94.035156 25.2771 94.035156 C 28.206787 94.002563 30.53418 93.083008 32.259521 91.276367 C 33.984863 89.469727 34.847412 87.378296 34.847412 85.001953 C 34.847412 83.634766 34.530029 82.145508 33.895264 80.53418 C 33.260498 78.922852 32.568848 77.352173 31.820068 75.822266 L 18.294678 45.744141 L 18.294678 49.748047 L 31.820068 19.621094 C 32.568848 18.123657 33.260498 16.569336 33.895264 14.958008 C 34.530029 13.34668 34.847412 11.873657 34.847412 10.539063 C 34.847412 8.130249 33.984863 6.022461 32.259521 4.21582 C 30.53418 2.40918 28.206787 1.489624 25.2771 1.457031 C 23.486816 1.457031 21.94043 1.945313 20.638428 2.921875 C 19.336426 3.898438 18.359863 5.135376 17.70874 6.632813 L 3.206787 38.517578 C 2.393066 40.340454 1.741943 41.911133 1.253662 43.229492 C 0.765381 44.547852 0.52124 46.053345 0.52124 47.746094 C 0.52124 49.40625 0.765381 50.903687 1.253662 52.238281 C 1.741943 53.572876 2.393066 55.167969 3.206787 57.023438 Z"/>
    </g>
</svg>
