<!-- SF Symbols 3: square.on.square (SF Pro - Medium - Light) -->
<svg viewBox="0 0 105 102" xmlns="http://www.w3.org/2000/svg" xmlns:xlink="http://www.w3.org/1999/xlink">
    <g>
        <path fill="currentColor" stroke="none" d="M 15.784912 80.102051 L 27.921021 80.102051 L 27.921021 74.062378 L 15.909546 74.062378 C 13.150024 74.062378 11.046997 73.34021 9.600464 71.895996 C 8.153931 70.451782 7.430664 68.324585 7.430664 65.51416 L 7.430664 16.875244 C 7.430664 14.046631 8.153931 11.914795 9.600464 10.479736 C 11.046997 9.044678 13.150024 8.327148 15.909546 8.327148 L 64.687134 8.327148 C 67.372559 8.327148 69.457031 9.044678 70.940552 10.479736 C 72.424072 11.914795 73.165894 14.046631 73.165894 16.875244 L 73.165894 26.319946 L 79.205688 26.319946 L 79.205688 16.542725 C 79.205688 11.843872 77.997559 8.293335 75.581177 5.890869 C 73.164795 3.488525 69.574951 2.287354 64.811646 2.287354 L 15.784912 2.287354 C 11.003052 2.287354 7.408569 3.484009 5.001465 5.877197 C 2.59436 8.270386 1.390869 11.825562 1.390869 16.542725 L 1.390869 65.84668 C 1.390869 70.564087 2.59436 74.119385 5.001465 76.512451 C 7.408569 78.905518 11.003052 80.102051 15.784912 80.102051 Z M 39.460693 101.371338 L 88.487549 101.371338 C 93.250488 101.371338 96.840332 100.170166 99.256958 97.7677 C 101.672974 95.365356 102.880981 91.814697 102.880981 87.115845 L 102.880981 37.81189 C 102.880981 33.113037 101.672974 29.5625 99.256958 27.160156 C 96.840332 24.75769 93.250488 23.556519 88.487549 23.556519 L 39.460693 23.556519 C 34.678833 23.556519 31.084351 24.753052 28.677246 27.14624 C 26.270142 29.539307 25.06665 33.094482 25.06665 37.81189 L 25.06665 87.115845 C 25.06665 91.851563 26.270142 95.411377 28.677246 97.795288 C 31.084351 100.179321 34.678833 101.371338 39.460693 101.371338 Z M 39.585327 95.331543 C 36.825806 95.331543 34.722778 94.614014 33.276245 93.178955 C 31.829712 91.743774 31.106445 89.611938 31.106445 86.783325 L 31.106445 38.144409 C 31.106445 35.334106 31.829712 33.206787 33.276245 31.762573 C 34.722778 30.318359 36.825806 29.596313 39.585327 29.596313 L 88.362915 29.596313 C 91.04834 29.596313 93.13269 30.318359 94.615967 31.762573 C 96.099976 33.206787 96.842041 35.334106 96.842041 38.144409 L 96.842041 86.783325 C 96.842041 89.611938 96.099976 91.743774 94.615967 93.178955 C 93.13269 94.614014 91.04834 95.331543 88.362915 95.331543 Z"/>
    </g>
</svg>
