<!-- SF Symbols 3: cursorarrow.and.square.on.square.dashed (SF Pro - Medium - Light) -->
<svg viewBox="0 0 105 111" xmlns="http://www.w3.org/2000/svg" xmlns:xlink="http://www.w3.org/1999/xlink">
    <g>
        <path fill="currentColor" stroke="none" d="M 1.381226 58.3125 L 1.381226 66.857422 C 1.381226 71.577515 2.585693 75.133789 4.994507 77.526367 C 7.40332 79.918945 11.000244 81.115234 15.785522 81.115234 L 27.894775 81.115234 L 27.894775 75.109375 L 15.883057 75.109375 C 13.116089 75.109375 11.016602 74.385132 9.584351 72.936523 C 8.1521 71.487915 7.435913 69.347656 7.435913 66.515625 L 7.435913 58.3125 Z M 7.435913 52.599609 L 7.435913 30.382813 L 1.381226 30.382813 L 1.381226 52.599609 Z M 7.435913 24.71875 L 7.435913 17.882813 C 7.435913 15.050781 8.1521 12.910522 9.584351 11.461914 C 11.016602 10.013306 13.116089 9.289063 15.883057 9.289063 L 23.646851 9.289063 L 23.646851 3.283203 L 15.785522 3.283203 C 11.000244 3.283203 7.40332 4.479492 4.994507 6.87207 C 2.585693 9.264648 1.381226 12.820923 1.381226 17.541016 L 1.381226 24.71875 Z M 51.576538 3.283203 L 29.310913 3.283203 L 29.310913 9.289063 L 51.576538 9.289063 Z M 57.240479 9.289063 L 64.711182 9.289063 C 67.380493 9.289063 69.455688 10.013306 70.936768 11.461914 C 72.417847 12.910522 73.158447 15.050781 73.158447 17.882813 L 73.158447 27.306641 L 79.213257 27.306641 L 79.213257 17.541016 C 79.213257 12.853516 78.00061 9.305298 75.575439 6.896484 C 73.150269 4.487671 69.561401 3.283203 64.808838 3.283203 L 57.240479 3.283203 Z M 102.89502 75.841797 L 102.89502 38.830078 C 102.89502 34.142578 101.682373 30.59436 99.256958 28.185547 C 96.831665 25.776733 93.259155 24.572266 88.539429 24.572266 L 39.467041 24.572266 C 34.682007 24.572266 31.084961 25.768555 28.676147 28.161133 C 26.267212 30.553711 25.062744 34.109985 25.062744 38.830078 L 25.062744 88.146484 C 25.062744 92.866577 26.267212 96.422852 28.676147 98.81543 C 31.084961 101.208008 34.682007 102.404297 39.467041 102.404297 L 65.54126 102.404297 L 65.54126 96.349609 L 39.564819 96.349609 C 36.797852 96.349609 34.698242 95.633423 33.265869 94.201172 C 31.833618 92.768921 31.117554 90.636719 31.117554 87.804688 L 31.117554 39.171875 C 31.117554 36.339844 31.833618 34.199585 33.265869 32.750977 C 34.698242 31.302368 36.797852 30.578125 39.564819 30.578125 L 88.392944 30.578125 C 91.062256 30.578125 93.137329 31.302368 94.618042 32.750977 C 96.099365 34.199585 96.839966 36.339844 96.839966 39.171875 L 96.839966 69.689453 Z M 69.203369 93.175781 C 69.203369 94.022095 69.561523 94.559204 70.27771 94.787109 C 70.993896 95.015015 71.628662 94.86853 72.182007 94.347656 L 79.799072 86.632813 L 88.539429 108.068359 C 88.734619 108.491577 89.027466 108.784546 89.417969 108.947266 C 89.808716 109.109985 90.199341 109.126343 90.589966 108.996094 L 94.78894 107.287109 C 95.179688 107.12439 95.440308 106.839478 95.571045 106.432617 C 95.70105 106.025757 95.668335 105.626953 95.473022 105.236328 L 86.439819 84.142578 L 97.524048 84.09375 C 98.30542 84.061157 98.842407 83.727539 99.13501 83.092773 C 99.428345 82.458008 99.297974 81.831421 98.744019 81.212891 L 72.035522 52.941406 C 71.514648 52.388062 70.920532 52.241577 70.253174 52.501953 C 69.585938 52.762329 69.235962 53.299438 69.203369 54.113281 Z"/>
    </g>
</svg>
