<!-- SF Symbols 3: cursorarrow.rays (SF Pro - Medium - Light) -->
<svg viewBox="0 0 109 105" xmlns="http://www.w3.org/2000/svg" xmlns:xlink="http://www.w3.org/1999/xlink">
    <g>
        <path fill="currentColor" stroke="none" d="M 31.094238 78.597412 C 30.497681 77.959351 29.732666 77.640259 28.799194 77.640259 C 27.865723 77.640259 27.079956 77.959351 26.441895 78.597412 L 17.045532 87.928711 C 16.409302 88.566772 16.091187 89.342651 16.091187 90.256348 C 16.091187 91.170044 16.409302 91.944946 17.045532 92.581177 C 17.64209 93.219238 18.407593 93.538208 19.342041 93.538208 C 20.276489 93.538208 21.05188 93.22998 21.668213 92.613647 L 31.094238 83.1875 C 31.730469 82.590942 32.048584 81.835938 32.048584 80.922241 C 32.048584 80.008545 31.730469 79.233643 31.094238 78.597412 Z M 21.552856 55.552368 C 21.552856 54.659546 21.223877 53.884155 20.56604 53.226196 C 19.908203 52.568359 19.1427 52.23938 18.269653 52.23938 L 4.895752 52.23938 C 3.983032 52.23938 3.202637 52.568359 2.554688 53.226196 C 1.906616 53.884155 1.582642 54.659546 1.582642 55.552368 C 1.582642 56.445313 1.906616 57.220825 2.554688 57.878662 C 3.202637 58.536499 3.983032 58.865479 4.895752 58.865479 L 18.269653 58.865479 C 19.1427 58.865479 19.908203 58.536499 20.56604 57.878662 C 21.223877 57.220825 21.552856 56.445313 21.552856 55.552368 Z M 30.771484 32.246948 C 31.407715 31.630615 31.72583 30.865601 31.72583 29.951904 C 31.72583 29.038208 31.407715 28.262329 30.771484 27.624268 L 21.437378 18.19812 C 20.799316 17.562012 20.018555 17.238403 19.094849 17.227539 C 18.171265 17.216675 17.401367 17.529419 16.785034 18.165649 C 16.168701 18.783813 15.860474 19.554688 15.860474 20.478271 C 15.860474 21.401855 16.168701 22.181763 16.785034 22.817993 L 26.148804 32.246948 C 26.765137 32.883179 27.530151 33.201294 28.443848 33.201294 C 29.357544 33.201294 30.133423 32.883179 30.771484 32.246948 Z M 54.139282 22.933472 C 55.010498 22.933472 55.780396 22.609497 56.449219 21.961548 C 57.118042 21.313477 57.452393 20.533081 57.452393 19.620361 L 57.452393 6.279053 C 57.452393 5.427612 57.118042 4.667603 56.449219 3.998901 C 55.780396 3.3302 55.010498 2.99585 54.139282 2.99585 C 53.246338 2.99585 52.475952 3.3302 51.828003 3.998901 C 51.179932 4.667603 50.855957 5.427612 50.855957 6.279053 L 50.855957 19.620361 C 50.855957 20.533081 51.179932 21.313477 51.828003 21.961548 C 52.475952 22.609497 53.246338 22.933472 54.139282 22.933472 Z M 77.119141 32.569824 C 77.757202 33.207886 78.533081 33.526855 79.446777 33.526855 C 80.360474 33.526855 81.136353 33.207886 81.774414 32.569824 L 91.200562 23.176147 C 91.816895 22.518311 92.125122 21.732056 92.125122 20.817383 C 92.125122 19.902832 91.816895 19.127441 91.200562 18.491211 C 90.5625 17.874878 89.781738 17.56665 88.858154 17.56665 C 87.934448 17.56665 87.164429 17.874878 86.548096 18.491211 L 77.119141 27.979614 C 76.483032 28.595947 76.164917 29.356079 76.164917 30.259766 C 76.164917 31.163574 76.483032 31.933594 77.119141 32.569824 Z M 86.755371 55.552368 C 86.755371 56.445313 87.084839 57.220825 87.743652 57.878662 C 88.402588 58.536499 89.167603 58.865479 90.038818 58.865479 L 103.380005 58.865479 C 104.272705 58.865479 105.047974 58.536499 105.706055 57.878662 C 106.364014 57.220825 106.692993 56.445313 106.692993 55.552368 C 106.692993 54.659546 106.364014 53.884155 105.706055 53.226196 C 105.047974 52.568359 104.272705 52.23938 103.380005 52.23938 L 90.038818 52.23938 C 89.167603 52.23938 88.402588 52.568359 87.743652 53.226196 C 87.084839 53.884155 86.755371 54.659546 86.755371 55.552368 Z M 50.189941 87.482666 C 50.168213 88.261475 50.515137 88.770996 51.230713 89.01123 C 51.946167 89.251465 52.587646 89.109619 53.154907 88.585693 L 60.741943 80.847046 L 69.495972 102.339722 C 69.664063 102.758789 69.942261 103.047485 70.330688 103.205566 C 70.719116 103.363647 71.121948 103.369629 71.539185 103.223267 L 75.702026 101.54834 C 76.121094 101.380249 76.393433 101.092041 76.519043 100.683838 C 76.644531 100.275513 76.612427 99.871826 76.422729 99.472534 L 67.37854 78.440063 L 78.429321 78.322754 C 79.20813 78.320923 79.754639 78.000122 80.06897 77.360596 C 80.383301 76.721069 80.266724 76.095947 79.719238 75.485229 L 53.023071 47.233887 C 52.475586 46.666626 51.86731 46.513916 51.197998 46.775757 C 50.528687 47.037842 50.19397 47.567139 50.19397 48.36377 Z"/>
    </g>
</svg>
