<!-- SF Symbols 3: pause.fill (SF Pro - Medium - Light) -->
<svg viewBox="0 0 60 80" xmlns="http://www.w3.org/2000/svg" xmlns:xlink="http://www.w3.org/1999/xlink">
    <g>
        <path fill="currentColor" stroke="none" d="M 6.792847 79.613281 L 17.63269 79.613281 C 19.553223 79.613281 20.993652 79.133179 21.953979 78.172852 C 22.914307 77.212524 23.394531 75.772095 23.394531 73.851563 L 23.394531 7.640625 C 23.394531 5.654907 22.914307 4.198242 21.953979 3.270508 C 20.993652 2.342773 19.553223 1.878906 17.63269 1.878906 L 6.792847 1.878906 C 4.839722 1.878906 3.391113 2.359009 2.447144 3.319336 C 1.503174 4.279663 1.03125 5.720093 1.03125 7.640625 L 1.03125 73.851563 C 1.03125 75.772095 1.503174 77.212524 2.447144 78.172852 C 3.391113 79.133179 4.839722 79.613281 6.792847 79.613281 Z M 40.728394 79.613281 L 51.470581 79.613281 C 53.423706 79.613281 54.872314 79.133179 55.816284 78.172852 C 56.760254 77.212524 57.2323 75.772095 57.2323 73.851563 L 57.2323 7.640625 C 57.2323 5.654907 56.760254 4.198242 55.816284 3.270508 C 54.872314 2.342773 53.423706 1.878906 51.470581 1.878906 L 40.728394 1.878906 C 38.742676 1.878906 37.269775 2.359009 36.309448 3.319336 C 35.349243 4.279663 34.869141 5.720093 34.869141 7.640625 L 34.869141 73.851563 C 34.869141 75.772095 35.349243 77.212524 36.309448 78.172852 C 37.269775 79.133179 38.742676 79.613281 40.728394 79.613281 Z"/>
    </g>
</svg>
