<!-- SF Symbols 3: play.fill (SF Pro - Medium - Light) -->
<svg viewBox="0 0 75 85" xmlns="http://www.w3.org/2000/svg" xmlns:xlink="http://www.w3.org/1999/xlink">
    <g>
        <path fill="currentColor" stroke="none" d="M 5.421631 83.859375 C 6.235474 83.859375 7.008545 83.721069 7.740967 83.444336 C 8.473389 83.167603 9.262817 82.768921 10.109131 82.248047 L 68.458862 48.3125 C 70.086426 47.335938 71.250122 46.457031 71.949951 45.675781 C 72.64978 44.894531 72.999756 43.934204 72.999756 42.794922 C 72.999756 41.68811 72.64978 40.735962 71.949951 39.938477 C 71.250122 39.140991 70.086426 38.270142 68.458862 37.326172 L 10.109131 3.341797 C 9.262817 2.853516 8.473389 2.471069 7.740967 2.194336 C 7.008545 1.917603 6.235474 1.779297 5.421631 1.779297 C 3.924194 1.779297 2.719849 2.316406 1.80835 3.390625 C 0.896851 4.464844 0.441162 5.913452 0.441162 7.736328 L 0.441162 77.853516 C 0.441162 79.676392 0.896851 81.133179 1.80835 82.223633 C 2.719849 83.314087 3.924194 83.859375 5.421631 83.859375 Z"/>
    </g>
</svg>
